<?xml version="1.0" encoding="UTF-8"?>
<svg xmlns="http://www.w3.org/2000/svg" xmlns:xlink="http://www.w3.org/1999/xlink" width="64px" height="62px" viewBox="0 0 64 62" version="1.1">
<defs>
<linearGradient id="linear0" gradientUnits="userSpaceOnUse" x1="0" y1="0" x2="1" y2="0" gradientTransform="matrix(60.261719,0,0,60.460938,1.453125,1.027344)">
<stop offset="0" style="stop-color:rgb(91.764706%,15.686275%,27.058824%);stop-opacity:1;"/>
<stop offset="1" style="stop-color:rgb(91.764706%,15.686275%,40.784314%);stop-opacity:1;"/>
</linearGradient>
</defs>
<g id="surface1">
<path style=" stroke:none;fill-rule:evenodd;fill:url(#linear0);" d="M 37.089844 1.027344 C 36.652344 1.027344 36.246094 1.121094 35.871094 1.25 C 36.667969 1.78125 37.105469 2.488281 37.324219 3.285156 C 37.339844 3.394531 37.371094 3.472656 37.386719 3.582031 C 37.402344 3.675781 37.417969 3.773438 37.417969 3.867188 C 37.480469 5.246094 37.058594 5.417969 36.761719 6.234375 C 36.308594 7.28125 36.433594 8.410156 36.980469 9.320312 C 37.027344 9.429688 37.089844 9.554688 37.167969 9.664062 C 36.574219 5.699219 39.875 5.105469 40.484375 3.867188 C 40.53125 2.785156 39.640625 2.0625 38.9375 1.5625 C 38.261719 1.152344 37.652344 1.027344 37.089844 1.027344 Z M 42.0625 1.921875 C 42 2.28125 42.046875 2.1875 42.03125 2.375 C 42.015625 2.503906 42.015625 2.660156 42 2.785156 C 41.96875 2.910156 41.9375 3.035156 41.890625 3.160156 C 41.859375 3.285156 41.8125 3.410156 41.765625 3.535156 C 41.703125 3.664062 41.65625 3.773438 41.59375 3.898438 C 41.546875 3.960938 41.515625 4.023438 41.46875 4.085938 L 41.375 4.226562 C 41.296875 4.335938 41.21875 4.445312 41.140625 4.539062 C 41.046875 4.632812 40.96875 4.742188 40.859375 4.820312 L 40.859375 4.835938 C 40.765625 4.917969 40.671875 5.011719 40.5625 5.089844 C 40.234375 5.339844 39.859375 5.527344 39.515625 5.761719 C 39.40625 5.839844 39.296875 5.902344 39.199219 5.996094 C 39.09375 6.074219 38.996094 6.15625 38.90625 6.25 C 38.792969 6.34375 38.714844 6.4375 38.621094 6.546875 C 38.542969 6.640625 38.449219 6.75 38.386719 6.859375 C 38.308594 6.96875 38.230469 7.078125 38.167969 7.1875 C 38.105469 7.3125 38.058594 7.425781 37.996094 7.550781 C 37.949219 7.675781 37.902344 7.785156 37.871094 7.910156 C 37.832031 8.039062 37.792969 8.171875 37.761719 8.300781 C 37.746094 8.363281 37.746094 8.441406 37.730469 8.503906 C 37.714844 8.570312 37.714844 8.632812 37.699219 8.695312 C 37.699219 8.820312 37.683594 8.960938 37.683594 9.085938 C 37.683594 9.179688 37.683594 9.273438 37.699219 9.367188 C 37.699219 9.492188 37.714844 9.617188 37.746094 9.761719 C 37.761719 9.886719 37.792969 10.011719 37.824219 10.136719 C 37.871094 10.261719 37.902344 10.386719 37.949219 10.511719 C 37.980469 10.589844 38.027344 10.667969 38.058594 10.730469 L 34.464844 9.335938 C 33.855469 9.164062 33.261719 9.007812 32.652344 8.867188 L 31.667969 8.632812 C 30.726562 8.441406 29.777344 8.300781 28.824219 8.207031 C 28.792969 8.207031 28.777344 8.191406 28.746094 8.191406 C 27.804688 8.097656 26.882812 8.050781 25.945312 8.050781 C 25.257812 8.050781 24.570312 8.082031 23.898438 8.128906 C 22.945312 8.191406 21.992188 8.316406 21.039062 8.472656 C 20.804688 8.503906 20.570312 8.554688 20.335938 8.601562 C 19.851562 8.695312 19.382812 8.804688 18.929688 8.914062 L 18.226562 9.101562 C 17.988281 9.195312 17.769531 9.304688 17.550781 9.398438 L 17.035156 9.632812 C 17.003906 9.648438 16.972656 9.648438 16.957031 9.664062 C 16.800781 9.742188 16.660156 9.808594 16.519531 9.886719 C 16.472656 9.902344 16.441406 9.917969 16.410156 9.933594 C 16.238281 10.011719 16.066406 10.105469 15.925781 10.183594 C 15.816406 10.230469 15.707031 10.292969 15.613281 10.339844 C 15.566406 10.371094 15.503906 10.402344 15.472656 10.417969 C 15.332031 10.496094 15.191406 10.574219 15.066406 10.652344 C 14.925781 10.730469 14.800781 10.808594 14.691406 10.886719 C 14.582031 10.964844 14.472656 11.027344 14.378906 11.109375 C 14.363281 11.125 14.347656 11.125 14.332031 11.140625 C 14.238281 11.203125 14.128906 11.28125 14.035156 11.359375 L 14.003906 11.390625 L 13.769531 11.578125 C 13.738281 11.59375 13.707031 11.625 13.675781 11.640625 C 13.597656 11.703125 13.519531 11.78125 13.441406 11.84375 C 13.425781 11.875 13.394531 11.890625 13.378906 11.90625 C 13.285156 12 13.191406 12.078125 13.097656 12.171875 C 13.082031 12.171875 13.082031 12.191406 13.066406 12.207031 C 12.972656 12.285156 12.878906 12.378906 12.785156 12.472656 C 12.769531 12.488281 12.769531 12.503906 12.753906 12.503906 C 12.671875 12.582031 12.59375 12.667969 12.519531 12.753906 C 12.488281 12.785156 12.441406 12.816406 12.410156 12.847656 C 12.332031 12.941406 12.238281 13.035156 12.144531 13.128906 C 12.128906 13.160156 12.097656 13.175781 12.082031 13.207031 C 11.957031 13.332031 11.847656 13.460938 11.722656 13.585938 L 11.675781 13.632812 C 11.425781 13.898438 11.160156 14.164062 10.878906 14.398438 C 10.601562 14.648438 10.308594 14.878906 10.003906 15.089844 C 9.699219 15.300781 9.386719 15.5 9.066406 15.683594 C 8.746094 15.859375 8.417969 16.015625 8.082031 16.15625 C 7.746094 16.296875 7.410156 16.421875 7.066406 16.53125 C 6.40625 16.671875 5.734375 16.9375 5.15625 16.984375 C 5.03125 16.984375 4.890625 17.015625 4.765625 17.03125 C 4.625 17.0625 4.5 17.09375 4.375 17.128906 L 4 17.269531 C 3.875 17.316406 3.75 17.378906 3.625 17.441406 C 3.515625 17.519531 3.390625 17.582031 3.28125 17.660156 C 3.171875 17.738281 3.0625 17.832031 2.96875 17.925781 C 2.859375 18.003906 2.75 18.113281 2.65625 18.207031 C 2.5625 18.320312 2.46875 18.414062 2.390625 18.523438 C 2.3125 18.648438 2.21875 18.757812 2.15625 18.882812 C 2.078125 18.992188 2 19.117188 1.9375 19.242188 C 1.875 19.382812 1.8125 19.511719 1.765625 19.652344 C 1.714844 19.785156 1.667969 19.921875 1.625 20.058594 C 1.59375 20.183594 1.5625 20.308594 1.546875 20.433594 C 1.546875 20.449219 1.53125 20.464844 1.53125 20.480469 C 1.5 20.621094 1.5 20.8125 1.484375 20.90625 C 1.46875 21.015625 1.453125 21.109375 1.453125 21.21875 C 1.453125 21.28125 1.453125 21.359375 1.46875 21.421875 C 1.484375 21.53125 1.5 21.625 1.53125 21.71875 C 1.5625 21.8125 1.59375 21.90625 1.640625 22.003906 L 1.640625 22.019531 C 1.6875 22.113281 1.75 22.207031 1.8125 22.300781 C 1.875 22.394531 1.9375 22.488281 2.015625 22.582031 C 2.09375 22.660156 2.1875 22.753906 2.28125 22.832031 C 2.375 22.925781 2.46875 23.003906 2.578125 23.082031 C 2.953125 23.414062 3.046875 23.523438 3.53125 23.773438 C 3.609375 23.820312 3.6875 23.851562 3.78125 23.898438 C 3.796875 23.898438 3.8125 23.914062 3.828125 23.914062 C 3.828125 23.945312 3.828125 23.960938 3.84375 23.992188 C 3.859375 24.117188 3.890625 24.242188 3.921875 24.367188 C 3.953125 24.5 3.996094 24.625 4.046875 24.746094 C 4.09375 24.839844 4.125 24.933594 4.171875 25.027344 C 4.1875 25.058594 4.203125 25.089844 4.21875 25.105469 C 4.28125 25.230469 4.34375 25.339844 4.40625 25.449219 L 4.640625 25.78125 C 4.71875 25.875 4.8125 25.984375 4.90625 26.078125 C 5 26.171875 5.09375 26.25 5.203125 26.34375 C 5.203125 26.34375 5.21875 26.359375 5.234375 26.359375 C 5.328125 26.4375 5.421875 26.515625 5.515625 26.578125 C 5.625 26.65625 5.734375 26.71875 5.859375 26.78125 C 5.96875 26.847656 6.09375 26.910156 6.21875 26.957031 C 6.3125 27.003906 6.421875 27.035156 6.53125 27.066406 C 6.546875 27.082031 6.5625 27.082031 6.59375 27.097656 C 6.660156 27.113281 6.734375 27.128906 6.796875 27.144531 C 6.753906 27.992188 6.734375 28.789062 6.863281 29.070312 C 7 29.386719 7.691406 28.429688 8.378906 27.332031 C 8.285156 28.414062 8.222656 29.683594 8.378906 30.058594 C 8.550781 30.449219 9.488281 29.226562 10.300781 27.878906 C 21.382812 25.308594 31.496094 32.992188 32.558594 43.839844 C 32.355469 42.144531 30.277344 41.203125 29.324219 41.441406 C 28.855469 42.597656 28.054688 44.089844 26.773438 45.011719 C 26.886719 43.964844 26.835938 42.910156 26.617188 41.878906 C 26.273438 43.320312 25.601562 44.667969 24.679688 45.828125 C 23.195312 45.9375 21.710938 45.21875 20.929688 44.136719 C 20.867188 44.089844 20.851562 43.996094 20.804688 43.933594 C 20.757812 43.820312 20.710938 43.710938 20.679688 43.601562 C 20.632812 43.496094 20.601562 43.386719 20.585938 43.273438 C 20.570312 43.164062 20.570312 43.054688 20.570312 42.929688 L 20.570312 42.695312 C 20.585938 42.582031 20.617188 42.472656 20.648438 42.363281 C 20.679688 42.253906 20.710938 42.144531 20.757812 42.035156 C 20.820312 41.925781 20.867188 41.816406 20.945312 41.707031 C 21.210938 40.953125 21.210938 40.34375 20.726562 39.980469 C 20.632812 39.921875 20.53125 39.867188 20.429688 39.824219 C 20.367188 39.808594 20.289062 39.777344 20.226562 39.761719 C 20.179688 39.746094 20.148438 39.730469 20.101562 39.714844 C 19.992188 39.683594 19.882812 39.652344 19.773438 39.636719 C 19.664062 39.605469 19.554688 39.589844 19.445312 39.589844 C 19.335938 39.574219 19.210938 39.558594 19.101562 39.558594 C 19.023438 39.558594 18.945312 39.574219 18.867188 39.574219 C 18.742188 39.574219 18.632812 39.589844 18.523438 39.621094 C 18.414062 39.636719 18.304688 39.652344 18.195312 39.683594 C 18.085938 39.714844 17.976562 39.746094 17.867188 39.792969 C 17.757812 39.839844 17.664062 39.886719 17.554688 39.933594 C 17.457031 39.980469 17.363281 40.042969 17.253906 40.089844 C 13.613281 42.472656 15.785156 48.054688 18.273438 49.667969 C 17.332031 49.839844 16.378906 50.046875 16.113281 50.25 L 16.082031 50.28125 C 16.753906 50.6875 17.457031 51.03125 18.195312 51.332031 C 19.195312 51.660156 20.257812 51.957031 20.726562 52.082031 L 20.726562 52.097656 C 22.019531 52.363281 23.34375 52.460938 24.664062 52.378906 C 31.589844 51.894531 37.261719 46.613281 38.292969 39.652344 C 38.328125 39.792969 38.359375 39.917969 38.386719 40.058594 C 38.4375 40.34375 38.496094 40.640625 38.527344 40.9375 L 38.527344 40.953125 C 38.5625 41.09375 38.574219 41.234375 38.59375 41.359375 L 38.59375 41.425781 C 38.609375 41.566406 38.625 41.707031 38.625 41.832031 C 38.640625 42.003906 38.652344 42.175781 38.652344 42.347656 L 38.652344 42.597656 C 38.652344 42.679688 38.671875 42.773438 38.671875 42.851562 C 38.671875 42.945312 38.652344 43.039062 38.652344 43.132812 L 38.652344 43.351562 C 38.652344 43.460938 38.636719 43.554688 38.636719 43.664062 C 38.636719 43.726562 38.636719 43.789062 38.625 43.871094 C 38.625 43.980469 38.605469 44.089844 38.605469 44.214844 C 38.589844 44.261719 38.589844 44.308594 38.589844 44.355469 C 38.574219 44.480469 38.558594 44.589844 38.542969 44.714844 C 38.542969 44.761719 38.542969 44.808594 38.527344 44.855469 C 38.511719 45.011719 38.480469 45.15625 38.464844 45.3125 L 38.464844 45.34375 C 38.433594 45.484375 38.402344 45.640625 38.371094 45.78125 L 38.371094 45.828125 L 38.277344 46.253906 C 38.277344 46.269531 38.261719 46.300781 38.261719 46.316406 C 38.230469 46.457031 38.199219 46.597656 38.152344 46.738281 L 38.152344 46.785156 C 38.105469 46.941406 38.058594 47.082031 38.027344 47.222656 C 38.011719 47.238281 38.011719 47.253906 38.011719 47.253906 L 37.871094 47.726562 C 37.808594 47.882812 37.761719 48.023438 37.699219 48.179688 C 37.636719 48.335938 37.589844 48.492188 37.527344 48.632812 C 37.464844 48.792969 37.402344 48.933594 37.339844 49.089844 L 37.324219 49.089844 C 37.261719 49.230469 37.199219 49.386719 37.121094 49.527344 C 37.105469 49.574219 37.089844 49.605469 37.074219 49.636719 C 37.058594 49.652344 37.058594 49.667969 37.042969 49.683594 C 36.027344 51.738281 34.527344 53.542969 32.652344 54.953125 C 32.527344 55.03125 32.402344 55.125 32.277344 55.21875 C 32.246094 55.25 32.199219 55.265625 32.167969 55.296875 C 32.058594 55.375 31.949219 55.453125 31.824219 55.53125 L 31.871094 55.625 L 31.886719 55.625 L 32.542969 55.53125 L 32.558594 55.53125 C 32.964844 55.46875 33.371094 55.390625 33.777344 55.3125 C 33.886719 55.296875 34.011719 55.265625 34.121094 55.234375 C 34.199219 55.21875 34.261719 55.203125 34.339844 55.1875 C 34.449219 55.171875 34.558594 55.140625 34.667969 55.125 C 34.761719 55.09375 34.855469 55.078125 34.949219 55.046875 C 36.511719 54.667969 38.027344 54.152344 39.484375 53.542969 C 36.996094 56.941406 33.667969 59.6875 29.777344 61.488281 C 31.574219 61.363281 33.371094 61.066406 35.105469 60.5625 C 41.40625 58.699219 46.703125 54.449219 49.875 48.730469 C 49.234375 52.359375 47.796875 55.800781 45.671875 58.808594 C 47.1875 57.804688 48.585938 56.636719 49.847656 55.328125 C 53.347656 51.660156 55.644531 47.003906 56.425781 42.003906 C 56.960938 44.484375 57.113281 47.03125 56.878906 49.558594 C 68.164062 33.773438 57.816406 17.410156 53.488281 13.097656 C 53.472656 13.066406 53.457031 13.050781 53.457031 13.019531 C 53.441406 13.035156 53.441406 13.035156 53.441406 13.050781 C 53.441406 13.035156 53.441406 13.035156 53.425781 13.019531 C 53.425781 13.207031 53.410156 13.394531 53.394531 13.585938 C 53.347656 13.945312 53.300781 14.289062 53.238281 14.636719 C 53.160156 14.980469 53.066406 15.324219 52.972656 15.667969 C 52.859375 16.007812 52.734375 16.34375 52.597656 16.671875 C 52.453125 16.996094 52.296875 17.316406 52.128906 17.628906 C 51.957031 17.925781 51.769531 18.238281 51.566406 18.523438 C 51.363281 18.8125 51.148438 19.097656 50.925781 19.367188 C 50.691406 19.652344 50.441406 19.902344 50.191406 20.152344 C 50.042969 20.289062 49.890625 20.417969 49.738281 20.542969 C 49.613281 20.652344 49.5 20.75 49.375 20.859375 C 49.09375 21.078125 48.8125 21.28125 48.5 21.46875 C 48.203125 21.65625 47.890625 21.84375 47.578125 22.003906 C 47.25 22.160156 46.921875 22.300781 46.59375 22.441406 C 46.265625 22.566406 45.921875 22.675781 45.578125 22.769531 C 45.234375 22.863281 44.882812 22.941406 44.53125 23.003906 C 44.171875 23.066406 43.8125 23.097656 43.46875 23.132812 C 43.21875 23.148438 42.96875 23.164062 42.71875 23.164062 C 42.359375 23.164062 42 23.128906 41.65625 23.097656 C 41.296875 23.066406 40.9375 23.019531 40.59375 22.941406 C 40.234375 22.878906 39.890625 22.785156 39.542969 22.675781 L 39.53125 22.675781 C 39.875 22.644531 40.21875 22.613281 40.5625 22.550781 C 40.914062 22.488281 41.261719 22.410156 41.609375 22.316406 C 41.953125 22.222656 42.292969 22.113281 42.625 21.988281 C 42.96875 21.859375 43.296875 21.703125 43.609375 21.546875 C 43.9375 21.390625 44.234375 21.21875 44.546875 21.03125 C 44.84375 20.828125 45.140625 20.621094 45.421875 20.402344 C 45.703125 20.183594 45.96875 19.949219 46.21875 19.699219 C 46.484375 19.460938 46.71875 19.195312 46.953125 18.929688 C 47.183594 18.65625 47.402344 18.371094 47.609375 18.082031 C 47.640625 18.035156 47.671875 17.972656 47.703125 17.925781 C 47.859375 17.675781 48.015625 17.425781 48.15625 17.175781 C 48.328125 16.863281 48.484375 16.542969 48.625 16.21875 C 48.769531 15.890625 48.894531 15.554688 49 15.214844 C 49.109375 14.886719 49.1875 14.539062 49.265625 14.195312 C 49.328125 13.835938 49.390625 13.492188 49.421875 13.144531 C 49.457031 12.785156 49.484375 12.425781 49.484375 12.078125 C 49.484375 11.828125 49.46875 11.578125 49.453125 11.328125 C 49.425781 10.96875 49.378906 10.621094 49.328125 10.277344 C 49.269531 9.921875 49.191406 9.574219 49.09375 9.226562 C 48.984375 8.898438 48.875 8.554688 48.75 8.222656 C 48.625 7.894531 48.46875 7.566406 48.3125 7.25 C 48.140625 6.9375 47.96875 6.625 47.78125 6.328125 C 47.582031 6.03125 47.375 5.746094 47.15625 5.464844 C 46.921875 5.195312 46.683594 4.929688 46.4375 4.664062 C 46.304688 4.53125 46.171875 4.398438 46.03125 4.273438 C 45.332031 3.726562 44.605469 3.214844 43.859375 2.738281 C 43.75 2.675781 43.65625 2.628906 43.546875 2.582031 C 43.03125 2.25 42.546875 2.078125 42.0625 1.921875 Z M 42.0625 1.921875 "/>
</g>
</svg>
